#!OML:ASF E:\I on waltz\Acrobat_Osman\acrobat\cartwheel_test 2\Patient 1\Session 1\acrobat.ASF
:FULLY-SPECIFIED
:DEGREES
135
root 5.4855 15.651 8.8794 -527.96 4.31425 181.916
lowerback 13.4861 0.00385659 -3.42329
upperback 5.55671 0.294612 1.78478
thorax -1.71753 0.364903 3.74868
lowerneck -8.61099 -5.00043 -6.73519
upperneck 8.2236 -6.39421 5.491
head 4.2591 -3.07058 2.36282
rclavicle -1.41758e-014 1.70582e-014
rhumerus 2.70303 25.4227 -78.8379
rradius 78.2221
rwrist -31.5253
rhand -23.2386 27.7973
rfingers 7.12502
rthumb 3.21271 -2.15825
lclavicle -1.41758e-014 1.70582e-014
lhumerus -2.76378 -25.5847 86.1656
lradius 72.2077
lwrist 33.9948
lhand -16.5556 44.4646
lfingers 7.12502
lthumb 9.66411 74.2229
rfemur -31.5779 0.219664 24.8304
rtibia 44.4555
rfoot -18.3445 -5.15723
rtoes -9.75153
lfemur -33.8013 7.31893 -24.2931
ltibia 47.2889
lfoot -198.653 178.298
ltoes -18.5543
136
root 5.51398 15.6949 8.80366 -528.615 3.78884 181.976
lowerback 12.9631 0.0228092 -3.54388
upperback 5.35443 0.272386 1.7111
thorax -1.64664 0.336713 3.74229
lowerneck -8.81379 -5.36373 -6.98448
upperneck 8.22447 -6.8942 5.98874
head 4.35047 -3.29488 2.51347
rclavicle -9.44227e-016 -1.49089e-016
rhumerus 1.05002 25.0608 -79.7263
rradius 78.6205
rwrist -31.1659
rhand -23.0304 27.7925
rfingers 7.12502
rthumb 3.41376 -2.15994
lclavicle -9.44227e-016 -1.49089e-016
lhumerus -2.7978 -26.1195 86.0519
lradius 72.5162
lwrist 34.5697
lhand -16.8584 44.9282
lfingers 7.12502
lthumb 9.37202 74.6998
rfemur -29.5874 0.18942 24.9861
rtibia 42.9358
rfoot -18.4386 -5.54981
rtoes -9.94609
lfemur -32.2297 7.36781 -24.007
ltibia 46.3141
lfoot -198.457 178.029
ltoes -18.4527
137
root 5.54165 15.7268 8.7346 -529.126 3.6352 182.127
lowerback 12.298 0.197282 -3.67178
upperback 5.09458 0.447031 1.6066
thorax -1.57628 0.402367 3.68088
lowerneck -8.6805 -5.69138 -7.04733
upperneck 8.13351 -7.36406 6.28467
head 4.34529 -3.51448 2.58267
rclavicle -1.07841e-014 2.98177e-016
rhumerus -0.852762 24.637 -80.7367
rradius 78.649
rwrist -30.6897
rhand -22.8326 27.8353
rfingers 7.12502
rthumb 3.60472 -2.11395
lclavicle -1.07841e-014 2.98177e-016
lhumerus -3.05534 -26.7062 85.9356
lradius 72.4884
lwrist 35.3294
lhand -16.8068 45.4662
lfingers 7.12502
lthumb 9.42173 75.2356
rfemur -27.8388 0.469495 25.1436
rtibia 41.4305
rfoot -18.4444 -5.71815
rtoes -9.72124
lfemur -30.9084 7.52888 -23.7444
ltibia 45.3616
lfoot -198.202 178.124
ltoes -18.6219
138
root 5.56254 15.7518 8.66122 -529.805 3.47059 182.128
lowerback 11.7198 0.322965 -3.83052
upperback 4.91178 0.568109 1.46288
thorax -1.46523 0.44552 3.60551
lowerneck -8.41248 -5.96625 -7.16457
upperneck 8.01172 -7.75699 6.53418
head 4.30508 -3.70323 2.65597
rclavicle -1.66979e-014 9.93923e-015
rhumerus -2.73559 24.334 -81.7325
rradius 78.1485
rwrist -30.0586
rhand -22.6705 27.8119
rfingers 7.12502
rthumb 3.76126 -2.1347
lclavicle -1.66979e-014 9.93923e-015
lhumerus -3.56098 -27.0762 85.9185
lradius 72.1318
lwrist 36.0632
lhand -16.5816 45.5135
lfingers 7.12502
lthumb 9.63905 75.273
rfemur -26.0062 0.570882 25.1265
rtibia 40.0998
rfoot -18.595 -5.75796
rtoes -9.45912
lfemur -29.4107 7.27447 -23.603
ltibia 44.5165
lfoot -198.233 178.454
ltoes -17.9118
139
root 5.57898 15.7695 8.58812 -530.532 3.14043 182.119
lowerback 11.2157 0.340244 -3.85695
upperback 4.82806 0.577617 1.31874
thorax -1.27926 0.438519 3.47047
lowerneck -8.358 -6.19186 -7.29024
upperneck 7.95379 -8.06834 6.73898
head 4.3138 -3.85055 2.71661
rclavicle 6.95746e-015 3.37934e-015
rhumerus -4.42036 24.111 -82.6556
rradius 77.1664
rwrist -29.5091
rhand -22.5599 27.8587
rfingers 7.12502
rthumb 3.86811 -2.08597
lclavicle 6.95746e-015 3.37934e-015
lhumerus -4.00128 -27.121 85.9387
lradius 71.2859
lwrist 36.7604
lhand -16.195 45.0305
lfingers 7.12502
lthumb 10.012 74.7724
rfemur -24.2165 0.453238 25.1342
rtibia 38.96
rfoot -18.8308 -5.78975
rtoes -9.2911
lfemur -27.832 6.50208 -23.4073
ltibia 43.7596
lfoot -198.428 179.065
ltoes -17.0423
140
root 5.59613 15.7766 8.52673 -530.88 3.18714 182.156
lowerback 10.4344 0.423986 -4.04952
upperback 4.66865 0.653831 1.27574
thorax -1.02763 0.454004 3.52925
lowerneck -8.39942 -6.31996 -7.63577
upperneck 7.99692 -8.22035 6.95419
head 4.36828 -3.92321 2.82344
rclavicle -6.26172e-015 -7.95139e-015
rhumerus -6.01279 24.2081 -83.4287
rradius 75.7927
rwrist -29.024
rhand -22.6024 27.8794
rfingers 7.12502
rthumb 3.82703 -2.06599
lclavicle -6.26172e-015 -7.95139e-015
lhumerus -4.57607 -26.7492 86.119
lradius 70.0362
lwrist 37.4307
lhand -15.946 45.5485
lfingers 7.12502
lthumb 10.2522 75.2787
rfemur -22.9974 0.620177 25.1395
rtibia 38.0201
rfoot -18.9689 -5.63846
rtoes -9.32762
lfemur -26.7545 5.89499 -23.3149
ltibia 43.1212
lfoot -198.648 180.165
ltoes -17.5729
141
root 5.6079 15.775 8.46962 -531.282 3.15727 182.157
lowerback 9.80196 0.427994 -4.29502
upperback 4.52768 0.628428 1.3796
thorax -0.828507 0.421045 3.78255
lowerneck -8.43439 -6.39977 -8.32253
upperneck 8.09096 -8.26682 7.16491
head 4.44411 -3.9552 2.9906
rclavicle -4.62174e-015 -5.76476e-015
rhumerus -7.58802 24.5391 -84.0169
rradius 73.9693
rwrist -28.3593
rhand -22.5176 27.6899
rfingers 7.12502
rthumb 3.90897 -2.25403
lclavicle -4.62174e-015 -5.76476e-015
lhumerus -5.4698 -26.0368 86.5807
lradius 68.4709
lwrist 37.8738
lhand -14.7762 47.257
lfingers 7.12502
lthumb 11.3806 76.9281
rfemur -21.8064 0.646557 25.1063
rtibia 37.2689
rfoot -19.1686 -5.38064
rtoes -9.53315
lfemur -25.7658 5.2871 -23.3247
ltibia 42.6428
lfoot -198.973 181.445
ltoes -19.2595
142
root 5.61845 15.7639 8.41768 -531.647 3.21908 182.236
lowerback 9.2117 0.501811 -4.43353
upperback 4.35019 0.702748 1.45872
thorax -0.699095 0.440995 3.93873
lowerneck -8.3424 -6.46356 -8.75499
upperneck 8.21649 -8.3177 7.23965
head 4.49282 -3.99079 3.07896
rclavicle -3.47873e-016 6.55989e-015
rhumerus -9.39357 24.5537 -84.7561
rradius 71.7694
rwrist -27.4513
rhand -22.2063 27.3551
rfingers 7.12502
rthumb 4.20959 -2.58307
lclavicle -3.47873e-016 6.55989e-015
lhumerus -6.57425 -25.4297 87.1147
lradius 66.5018
lwrist 38.2842
lhand -12.8891 47.8348
lfingers 7.12502
lthumb 13.2001 77.3969
rfemur -20.8019 0.702775 25.1622
rtibia 36.6843
rfoot -19.3184 -5.14182
rtoes -9.71932
lfemur -24.9898 4.80065 -23.2554
ltibia 42.3748
lfoot -199.18 182.565
ltoes -21.2272
143
root 5.63225 15.7458 8.3734 -531.994 3.27431 182.366
lowerback 8.69757 0.601013 -4.50876
upperback 4.18194 0.817392 1.47588
thorax -0.604674 0.485015 3.99107
lowerneck -8.27811 -6.52589 -8.80578
upperneck 8.41697 -8.40092 7.19216
head 4.55046 -4.03528 3.06535
rclavicle -4.52235e-015 -3.37934e-015
rhumerus -11.2715 24.2925 -85.6453
rradius 69.2001
rwrist -26.3088
rhand -21.9548 26.8461
rfingers 7.12502
rthumb 4.45243 -3.08714
lclavicle -4.52235e-015 -3.37934e-015
lhumerus -7.71246 -25.0114 87.5448
lradius 64.0121
lwrist 38.7254
lhand -13.3793 46.4139
lfingers 7.12502
lthumb 12.7276 76.006
rfemur -19.8903 0.774579 25.3225
rtibia 36.102
rfoot -19.5263 -5.05059
rtoes -9.72744
lfemur -24.2571 4.3538 -23.0071
ltibia 42.1867
lfoot -199.318 183.001
ltoes -20.6804
144
root 5.64477 15.7309 8.33258 -532.359 3.42143 182.51
lowerback 8.25498 0.706528 -4.58708
upperback 4.06789 0.947701 1.51657
thorax -0.494716 0.538871 4.06937
lowerneck -8.2441 -6.56754 -8.71143
upperneck 8.51957 -8.44989 6.96904
head 4.56636 -4.06821 2.97749
rclavicle 2.18663e-015 -5.96354e-016
rhumerus -13.085 24.1178 -86.4604
rradius 66.1311
rwrist -24.7038
rhand -22.2076 26.5263
rfingers 7.12502
rthumb 4.20826 -3.41187
lclavicle 2.18663e-015 -5.96354e-016
lhumerus -9.06435 -24.4784 87.9687
lradius 61.1791
lwrist 38.7708
lhand -15.4262 44.4803
lfingers 7.12502
lthumb 10.7537 74.1851
rfemur -19.0365 0.832229 25.4991
rtibia 35.6068
rfoot -20.049 -4.91614
rtoes -9.20988
lfemur -23.5303 4.10138 -22.6908
ltibia 42.0921
lfoot -199.629 182.915
ltoes -17.8277
145
root 5.65511 15.7423 8.28861 -532.601 3.68161 182.583
lowerback 7.66088 0.821252 -4.78321
upperback 3.95077 1.08725 1.59391
thorax -0.307177 0.592204 4.25516
lowerneck -8.05481 -6.55912 -8.61281
upperneck 8.40197 -8.42867 6.67672
head 4.48015 -4.07461 2.88052
rclavicle 5.76476e-015 3.57812e-015
rhumerus -14.8659 23.8173 -87.219
rradius 62.5892
rwrist -22.7921
rhand -22.3851 26.2357
rfingers 7.12502
rthumb 4.03688 -3.70577
lclavicle 5.76476e-015 3.57812e-015
lhumerus -10.89 -23.5612 88.5236
lradius 58.5042
lwrist 38.359
lhand -16.6054 43.7497
lfingers 7.12502
lthumb 9.6161 73.5103
rfemur -18.2781 0.821428 25.5792
rtibia 35.0789
rfoot -19.8402 -4.53212
rtoes -7.80312
lfemur -22.9137 4.12423 -22.5167
ltibia 41.9041
lfoot -199.871 182.88
ltoes -16.4963
146
root 5.66529 15.7321 8.24513 -532.78 3.89938 182.545
lowerback 6.99003 0.888464 -5.06197
upperback 3.84981 1.16555 1.65548
thorax -0.0545595 0.611812 4.47937
lowerneck -7.85747 -6.50985 -8.60187
upperneck 8.2632 -8.35381 6.49347
head 4.39077 -4.05128 2.83592
rclavicle 7.7526e-015 3.37934e-015
rhumerus -16.3803 23.0371 -87.9515
rradius 58.531
rwrist -21.0212
rhand -21.6886 25.5174
rfingers 7.12502
rthumb 4.70944 -4.41022
lclavicle 7.7526e-015 3.37934e-015
lhumerus -12.9327 -22.2606 89.1346
lradius 55.7925
lwrist 37.8033
lhand -16.5044 45.8495
lfingers 7.12502
lthumb 9.71353 75.6055
rfemur -17.5986 0.740753 25.5709
rtibia 34.5369
rfoot -19.9512 -4.32719
rtoes -7.23596
lfemur -22.3667 4.21639 -22.4948
ltibia 41.6718
lfoot -200.066 182.86
ltoes -16.1776
147
root 5.67181 15.7284 8.19949 -533.096 3.90501 182.457
lowerback 6.5532 0.866717 -5.23525
upperback 3.74382 1.12789 1.68338
thorax 0.0788473 0.580644 4.61447
lowerneck -7.75166 -6.44398 -8.64218
upperneck 8.37332 -8.25232 6.33343
head 4.39414 -4.01183 2.80309
rclavicle 1.38652e-014 6.95746e-015
rhumerus -17.9484 21.9609 -88.6623
rradius 54.0731
rwrist -19.0121
rhand -21.0753 24.8705
rfingers 7.12502
rthumb 5.30164 -5.0432
lclavicle 1.38652e-014 6.95746e-015
lhumerus -15.1403 -20.9428 89.6659
lradius 52.6451
lwrist 37.3
lhand -15.5496 49.2025
lfingers 7.12502
lthumb 10.6347 78.9134
rfemur -16.6849 0.636091 25.5182
rtibia 33.8441
rfoot -20.3586 -4.36874
rtoes -6.97785
lfemur -21.5555 4.17757 -22.5069
ltibia 41.2523
lfoot -200.315 182.802
ltoes -15.8842
148
root 5.67353 15.7312 8.15192 -533.432 3.80861 182.358
lowerback 6.21507 0.802606 -5.2934
upperback 3.58044 1.03179 1.65011
thorax 0.107475 0.525558 4.62186
lowerneck -7.70263 -6.38058 -8.58305
upperneck 8.7624 -8.16486 6.16001
head 4.48894 -3.97381 2.74483
rclavicle 6.31141e-015 -3.97569e-016
rhumerus -19.8749 20.5565 -89.4003
rradius 49.5218
rwrist -16.5792
rhand -20.9538 24.276
rfingers 7.12502
rthumb 5.41893 -5.63476
lclavicle 6.31141e-015 -3.97569e-016
lhumerus -17.6729 -19.6451 90.0611
lradius 49.2458
lwrist 36.6352
lhand -15.2173 50.9843
lfingers 7.12502
lthumb 10.9551 80.6785
rfemur -15.7084 0.599779 25.4186
rtibia 33.1257
rfoot -20.8141 -4.43847
rtoes -6.22973
lfemur -20.6798 4.06016 -22.5546
ltibia 40.7164
lfoot -200.601 182.76
ltoes -15.5288
